<svg width="24" height="24" viewBox="0 0 24 24" fill="none" xmlns="http://www.w3.org/2000/svg">
  <path d="M7.9985 2.99622V16.0016" stroke="currentColor" stroke-width="1.5" stroke-linecap="round"
    stroke-linejoin="round" />
  <path d="M19.0031 16.0017V20.0034" stroke="currentColor" stroke-width="1.5" stroke-linecap="round"
    stroke-linejoin="round" />
  <path
    d="M19.0031 2.99622C19.5556 2.99622 20.0035 3.44412 20.0035 3.99663V15.0012C20.0035 15.5537 19.5556 16.0016 19.0031 16.0016H5.99766C4.89263 16.0016 3.99683 16.8974 3.99683 18.0025V18.0025C3.99683 19.1075 4.89263 20.0033 5.99766 20.0033"
    stroke="currentColor" stroke-width="1.5" stroke-linecap="round" stroke-linejoin="round" />
  <path d="M5.99756 20.0034H12.0001" stroke="currentColor" stroke-width="1.5" stroke-linecap="round"
    stroke-linejoin="round" />
  <path d="M16.0017 20.0034H20.0034" stroke="currentColor" stroke-width="1.5" stroke-linecap="round"
    stroke-linejoin="round" />
  <path fill-rule="evenodd" clip-rule="evenodd" d="M12 18.5027H16.0017V22.5044L14.0008 21.5039L12 22.5044V18.5027Z"
    stroke="currentColor" stroke-width="1.5" stroke-linecap="round" stroke-linejoin="round" />
  <path d="M3.99683 18.0025V4.99705C3.99683 3.89202 4.89263 2.99622 5.99766 2.99622H19.0031" stroke="currentColor"
    stroke-width="1.5" stroke-linecap="round" stroke-linejoin="round" />
</svg>