<svg width="23" height="23" viewBox="0 0 23 23" fill="none" xmlns="http://www.w3.org/2000/svg">
  <path d="M7.66491 2.87134V15.3349" stroke="currentColor" stroke-linecap="round" stroke-linejoin="round" />
  <path d="M18.2111 15.3348V19.1698" stroke="currentColor" stroke-linecap="round" stroke-linejoin="round" />
  <path
    d="M18.2111 2.87134C18.7406 2.87134 19.1698 3.30058 19.1698 3.83007V14.3761C19.1698 14.9056 18.7406 15.3349 18.2111 15.3349H5.74754C4.68856 15.3349 3.83008 16.1933 3.83008 17.2523V17.2523C3.83008 18.3113 4.68856 19.1698 5.74754 19.1698"
    stroke="currentColor" stroke-linecap="round" stroke-linejoin="round" />
  <path d="M5.74756 19.1698H11.5" stroke="currentColor" stroke-linecap="round" stroke-linejoin="round" />
  <path d="M15.3347 19.1698H19.1696" stroke="currentColor" stroke-linecap="round" stroke-linejoin="round" />
  <path fill-rule="evenodd" clip-rule="evenodd"
    d="M11.4998 17.7317H15.3347V21.5666L13.4172 20.6079L11.4998 21.5666V17.7317Z" stroke="currentColor"
    stroke-linecap="round" stroke-linejoin="round" />
  <path d="M3.83008 17.2523V4.7888C3.83008 3.72982 4.68856 2.87134 5.74754 2.87134H18.2111" stroke="currentColor"
    stroke-linecap="round" stroke-linejoin="round" />
</svg>