<svg width="24" height="24" viewBox="0 0 24 24" fill="none" xmlns="http://www.w3.org/2000/svg">
  <path
    d="M19.9999 3.94641C22.2019 6.16323 20.4168 11.5545 16.0129 15.9882C11.609 20.4218 6.25374 22.2189 4.05176 20.0021"
    stroke="currentColor" stroke-width="1.5" stroke-linecap="round" stroke-linejoin="round" />
  <path
    d="M12.0258 10.5146C10.8618 9.33782 9.26979 8.6843 7.61471 8.70392C6.06084 8.74662 4.81616 10.0054 4.79098 11.5597C4.78735 12.0007 4.83042 12.4408 4.91947 12.8728C6.18533 12.9118 7.40042 13.3796 8.36569 14.1994"
    stroke="currentColor" stroke-width="1.5" stroke-linecap="round" stroke-linejoin="round" />
  <path
    d="M8.37103 14.1941C7.55875 13.5037 6.56536 13.061 5.50888 12.9185C4.57707 12.8077 3.69659 13.3701 3.40523 14.2621C2.64391 16.6258 2.79895 18.7408 4.0518 20.0021"
    stroke="currentColor" stroke-width="1.5" stroke-linecap="round" stroke-linejoin="round" />
  <path
    d="M12.0258 10.5146C10.9716 9.45091 9.56297 8.81205 8.06818 8.71968C8.06319 8.64062 8.05968 8.56149 8.05767 8.4823C8.04201 7.65567 8.36776 6.85913 8.95818 6.28036C9.54859 5.7016 10.3515 5.39178 11.1776 5.4239C12.7276 5.48169 14.1973 6.12768 15.2879 7.23049"
    stroke="currentColor" stroke-width="1.5" stroke-linecap="round" stroke-linejoin="round" />
  <path d="M10.7878 5.44994C14.058 2.66259 18.0208 1.9547 20.0001 3.9464" stroke="currentColor" stroke-width="1.5"
    stroke-linecap="round" stroke-linejoin="round" />
</svg>