<svg width="24" height="24" viewBox="0 0 24 24" fill="none" xmlns="http://www.w3.org/2000/svg">
  <path fill-rule="evenodd" clip-rule="evenodd"
    d="M3.99675 10.4995H16.0018C16.5543 10.4995 17.0022 10.9474 17.0022 11.4999V14.5012C17.0022 17.8163 14.3148 20.5037 10.9997 20.5037H8.99884C5.68375 20.5037 2.99634 17.8163 2.99634 14.5012V11.4999C2.99634 10.9474 3.44424 10.4995 3.99675 10.4995Z"
    stroke="currentColor" stroke-width="1.5" stroke-linecap="round" stroke-linejoin="round" />
  <path
    d="M13.5007 7.4983C12.8338 6.79801 12.8338 5.69755 13.5007 4.99726C14.1676 4.29697 14.1676 3.19651 13.5007 2.49622"
    stroke="currentColor" stroke-width="1.5" stroke-linecap="round" stroke-linejoin="round" />
  <path
    d="M9.99923 7.4983C9.33229 6.79801 9.33229 5.69755 9.99923 4.99726C10.6662 4.29696 10.6662 3.19651 9.99923 2.49622"
    stroke="currentColor" stroke-width="1.5" stroke-linecap="round" stroke-linejoin="round" />
  <path
    d="M6.49777 7.4983C5.83082 6.79801 5.83082 5.69755 6.49777 4.99726C7.16471 4.29696 7.16471 3.19651 6.49777 2.49622"
    stroke="currentColor" stroke-width="1.5" stroke-linecap="round" stroke-linejoin="round" />
  <path
    d="M16.1295 17.6174L17.9761 17.1949C19.7476 16.7895 21.0038 15.2134 21.0038 13.3961V13.3961C21.0038 12.6279 20.6986 11.8911 20.1554 11.3479C19.6122 10.8047 18.8754 10.4995 18.1072 10.4995H15.5015"
    stroke="currentColor" stroke-width="1.5" stroke-linecap="round" stroke-linejoin="round" />
</svg>