<svg width="24" height="24" viewBox="0 0 24 24" fill="none" xmlns="http://www.w3.org/2000/svg">
  <path fill-rule="evenodd" clip-rule="evenodd"
    d="M2.16966 17.5547C1.96509 17.2478 1.94602 16.8533 2.12004 16.5281C2.29406 16.203 2.63292 16 3.00172 16H20.9983C21.3671 16 21.706 16.203 21.88 16.5281C22.054 16.8533 22.035 17.2478 21.8304 17.5547L20.794 19.1094C20.423 19.6658 19.7986 20 19.1299 20H4.87021C4.2015 20 3.57703 19.6658 3.2061 19.1094L2.16966 17.5547Z"
    stroke="currentColor" stroke-width="1.5" stroke-linecap="round" stroke-linejoin="round" />
  <path
    d="M3.30908 16L4.56152 7.85211C4.81371 6.21129 6.22547 4.99996 7.88556 5H7.88562C8.6319 5.00299 9.35563 5.2561 9.9411 5.71887"
    stroke="currentColor" stroke-width="1.5" stroke-linecap="round" stroke-linejoin="round" />
  <path
    d="M14.0588 5.71887C14.6443 5.2561 15.368 5.00299 16.1143 5H16.1144C17.7745 4.99998 19.1862 6.2113 19.4384 7.85211L20.6909 16"
    stroke="currentColor" stroke-width="1.5" stroke-linecap="round" stroke-linejoin="round" />
  <path
    d="M7.73071 16L8.65607 7.98019C8.85207 6.28173 10.2902 5 11.9999 5C13.7097 5 15.1478 6.28173 15.3438 7.98019L16.2692 16"
    stroke="currentColor" stroke-width="1.5" stroke-linecap="round" stroke-linejoin="round" />
</svg>