<svg width="24" height="24" viewBox="0 0 24 24" fill="none" xmlns="http://www.w3.org/2000/svg">
  <path fill-rule="evenodd" clip-rule="evenodd"
    d="M6 19H4C3.448 19 3 18.552 3 18V15C3 14.448 3.448 14 4 14H6C6.552 14 7 14.448 7 15V18C7 18.552 6.552 19 6 19Z"
    fill="currentColor" stroke="currentColor" stroke-width="1.5" stroke-linecap="round" stroke-linejoin="round" />
  <path fill-rule="evenodd" clip-rule="evenodd"
    d="M13 19H11C10.448 19 10 18.552 10 18V11C10 10.448 10.448 10 11 10H13C13.552 10 14 10.448 14 11V18C14 18.552 13.552 19 13 19Z"
    stroke="currentColor" stroke-width="1.5" stroke-linecap="round" stroke-linejoin="round" />
  <path fill-rule="evenodd" clip-rule="evenodd"
    d="M20 19H18C17.448 19 17 18.552 17 18V6C17 5.448 17.448 5 18 5H20C20.552 5 21 5.448 21 6V18C21 18.552 20.552 19 20 19Z"
    stroke="currentColor" stroke-width="1.5" stroke-linecap="round" stroke-linejoin="round" />
</svg>