<svg width="24" height="24" viewBox="0 0 24 24" fill="none" xmlns="http://www.w3.org/2000/svg">
  <path
    d="M3 3.08398V7.54598V7.63598V7.54598C3 8.81998 3.525 9.94798 4.339 10.678C4.737 11.035 5 11.517 5 12.052V19.5C5 20.328 5.672 21 6.5 21C7.328 21 8 20.328 8 19.5V12.052C8 11.517 8.263 11.035 8.661 10.678C9.475 9.94798 10 8.81998 10 7.54598V3.08398V7.54598"
    stroke="currentColor" stroke-width="1.5" stroke-linecap="round" stroke-linejoin="round" />
  <path d="M6.5 8V3" stroke="currentColor" stroke-width="1.5" stroke-linecap="round" stroke-linejoin="round" />
  <path fill-rule="evenodd" clip-rule="evenodd"
    d="M20 4.052C20 3.5 19.552 3.052 19 3.052H18C16.343 3.052 15 4.395 15 6.052V12.052C15 13.356 15.837 14.455 17 14.868V19.5C17 20.328 17.672 21 18.5 21C19.328 21 20 20.328 20 19.5V15.052V4.052Z"
    stroke="currentColor" stroke-width="1.5" stroke-linecap="round" stroke-linejoin="round" />
</svg>