<svg width="24" height="24" viewBox="0 0 24 24" fill="none" xmlns="http://www.w3.org/2000/svg">
  <path fill-rule="evenodd" clip-rule="evenodd"
    d="M19.8183 13.7971L19.8673 13.7848C20.5353 13.6178 21.0038 13.0176 21.0038 12.329V11.6706C21.0038 10.982 20.5352 10.3818 19.8672 10.2147L19.8182 10.2025C19.3089 10.0749 18.8902 9.71353 18.6894 9.22842C18.4886 8.7433 18.5295 8.19175 18.7997 7.74155L18.8203 7.70722C19.1791 7.11577 19.0879 6.35583 18.5994 5.86603L18.1338 5.40042C17.6469 4.91351 16.8911 4.82046 16.3006 5.17471L16.2573 5.20072C15.8072 5.4708 15.2556 5.51161 14.7706 5.31071C14.2856 5.10982 13.9245 4.69099 13.7972 4.18171L13.785 4.13282C13.6179 3.46481 13.0177 2.99622 12.3291 2.99622H11.6707C10.9821 2.99622 10.3819 3.46483 10.2148 4.13284L10.2026 4.18186C10.075 4.69115 9.71365 5.10987 9.22853 5.31066C8.74341 5.51144 8.19185 5.47055 7.74165 5.2004L7.7073 5.17981C7.11586 4.82101 6.35592 4.91217 5.86612 5.40068L5.40052 5.86628C4.91359 6.3531 4.8205 7.10884 5.17473 7.69927L5.20035 7.74199C5.4705 8.19219 5.5114 8.74375 5.31062 9.22887C5.10985 9.71399 4.69112 10.0753 4.18183 10.2029L4.13297 10.2152C3.46498 10.3822 2.99634 10.9824 2.99634 11.6709V12.3295C2.99634 13.0179 3.46472 13.6181 4.1326 13.7851L4.18114 13.7972C4.6905 13.9245 5.10943 14.2856 5.3105 14.7706C5.51156 15.2556 5.47097 15.8072 5.20109 16.2576L5.17515 16.3008C4.8209 16.8912 4.91394 17.647 5.4008 18.1339L5.86645 18.5995C6.35317 19.0864 7.10881 19.1795 7.69916 18.8254L7.74206 18.7996C8.19226 18.5295 8.74382 18.4885 9.22895 18.6893C9.71408 18.8901 10.0754 19.3088 10.203 19.8181L10.2153 19.867C10.3823 20.535 10.9824 21.0037 11.671 21.0037H12.3296C13.018 21.0037 13.6182 20.5353 13.7852 19.8674L13.7973 19.8189C13.9246 19.3095 14.2857 18.8906 14.7707 18.6895C15.2557 18.4884 15.8073 18.5291 16.2576 18.799L16.3009 18.8249C16.8913 19.1791 17.6471 19.0861 18.134 18.5992L18.5997 18.1336C19.0865 17.6469 19.1796 16.8912 18.8255 16.3009L18.7997 16.258C18.5296 15.8078 18.4887 15.2562 18.6895 14.7711C18.8903 14.286 19.3091 13.9247 19.8183 13.7971Z"
    stroke="currentColor" stroke-width="1.5" stroke-linecap="round" stroke-linejoin="round" />
  <circle cx="11.9999" cy="12.0003" r="2.07779" stroke="currentColor" stroke-width="1.5" stroke-linecap="round"
    stroke-linejoin="round" />
</svg>