<svg width="24" height="24" viewBox="0 0 24 24" fill="none" xmlns="http://www.w3.org/2000/svg">
  <path d="M1.99585 18.0026H22.0042" stroke="currentColor" stroke-width="1.5" stroke-linecap="round"
    stroke-linejoin="round" />
  <path
    d="M2.99634 18.0026L3.54071 19.6357C3.81306 20.4527 4.57766 21.0038 5.43888 21.0038H18.5613C19.4226 21.0038 20.1872 20.4527 20.4595 19.6357L21.0038 18.0026"
    stroke="currentColor" stroke-width="1.5" stroke-linecap="round" stroke-linejoin="round" />
  <path fill-rule="evenodd" clip-rule="evenodd"
    d="M11.6048 13.2455C10.6692 11.8843 10.9131 10.0362 12.17 8.96436C14.1074 7.20676 16.612 6.79546 17.6586 7.84217C18.7534 8.93692 18.2532 11.6267 16.2856 13.5942C15.648 14.2315 14.7644 14.5595 13.8653 14.4925C12.9663 14.4256 12.141 13.9703 11.6048 13.2455V13.2455Z"
    stroke="currentColor" stroke-width="1.5" stroke-linecap="round" stroke-linejoin="round" />
  <path fill-rule="evenodd" clip-rule="evenodd"
    d="M20.6237 5.11726C21.3834 5.11726 21.9993 5.73312 21.9993 6.49283C21.9993 7.25254 21.3834 7.86841 20.6237 7.86841H19.7233C19.4559 7.86943 19.2001 7.97753 19.013 8.16853L18.1927 8.97887C18.1414 8.55207 17.9557 8.15265 17.6624 7.83839C17.3482 7.5451 16.9488 7.35941 16.522 7.30817L17.3323 6.48783C17.5233 6.30073 17.6314 6.04491 17.6324 5.77753V4.87716C17.6324 4.11745 18.2483 3.50159 19.008 3.50159C19.7677 3.50159 20.3836 4.11745 20.3836 4.87716V5.11726H20.6237Z"
    stroke="currentColor" stroke-width="1.5" stroke-linecap="round" stroke-linejoin="round" />
  <path
    d="M18.0427 10.6995C19.2439 11.8395 19.9482 13.4063 20.0035 15.0614V15.5015C20.003 16.8826 18.8835 18.0021 17.5025 18.0026H6.49787C5.11679 18.0021 3.99733 16.8826 3.99683 15.5015V15.0614C3.99683 11.1597 8.38866 7.99842 12.0002 7.99842C12.4369 7.99806 12.8726 8.04164 13.3007 8.12847"
    stroke="currentColor" stroke-width="1.5" stroke-linecap="round" stroke-linejoin="round" />
</svg>