<svg width="24" height="24" viewBox="0 0 24 24" fill="none" xmlns="http://www.w3.org/2000/svg">
  <path fill-rule="evenodd" clip-rule="evenodd"
    d="M2.99634 7.99842V16.0018C2.99634 18.7643 5.23585 21.0038 7.99842 21.0038H16.0018C18.7643 21.0038 21.0038 18.7643 21.0038 16.0018V7.99842C21.0038 5.23585 18.7643 2.99634 16.0018 2.99634H7.99842C5.23585 2.99634 2.99634 5.23585 2.99634 7.99842Z"
    stroke="currentColor" stroke-width="1.5" stroke-linecap="round" stroke-linejoin="round" />
  <path fill-rule="evenodd" clip-rule="evenodd"
    d="M14.3612 12.0001H9.63923C8.68508 12.0005 7.86342 11.3271 7.67641 10.3915L7.47633 9.39104C7.35882 8.80314 7.51113 8.19352 7.89135 7.72998C8.27156 7.26643 8.83961 6.99781 9.43914 6.99805H14.5613C15.1608 6.99781 15.7289 7.26643 16.1091 7.72998C16.4893 8.19352 16.6416 8.80314 16.5241 9.39104L16.324 10.3915C16.137 11.3271 15.3153 12.0005 14.3612 12.0001Z"
    stroke="currentColor" stroke-width="1.5" stroke-linecap="round" stroke-linejoin="round" />
  <path d="M10.9998 12.0001L12.0002 9.99927" stroke="currentColor" stroke-width="1.5" stroke-linecap="round"
    stroke-linejoin="round" />
</svg>